Title                            : Limitless
Year                             : 2011
Genre                            : Mystery | Sci-Fi | Thriller
iMDB URL                         : http://www.imdb.com/title/tt1219289/

Complete name                    : Limitless.2011.BRRIP.720P.H264-ZEKTORM.mp4
Format                           : MPEG-4
Format profile                   : Base Media
Codec ID                         : isom
File size                        : 2.34 GiB
Duration                         : 1h 45mn (Unrated)
Overall bit rate                 : 3173 Kbps
Subtitles                        : English (Format: srt)

Video
ID                               : 1
Format                           : AVC
Format/Info                      : Advanced Video Codec
Format profile                   : High@L4.0
Format settings, CABAC           : Yes
Format settings, ReFrames        : 12 frames
Codec ID                         : avc1
Codec ID/Info                    : Advanced Video Coding
Duration                         : 1h 45mn
Bit rate mode                    : Variable
Bit rate                         : 2738 Kbps
Width                            : 1280 pixels
Height                           : 528 pixels
Display aspect ratio             : 2.424
Frame rate mode                  : Constant
Frame rate                       : 23.976 fps
Resolution                       : 24 bits
Colorimetry                      : 4:2:0
Scan type                        : Progressive
Bits/(Pixel*Frame)               : 0.169
Stream size                      : 2.01 GiB (86%)
Title                            : Video
Writing library                  : x264

Audio
ID                               : 2
Format                           : AAC
Format/Info                      : Advanced Audio Codec
Format version                   : Version 4
Format profile                   : LC
Format settings, SBR             : No
Codec ID                         : 40
Duration                         : 1h 45mn
Bit rate mode                    : Variable
Bit rate                         : 437 Kbps
Maximum bit rate                 : 564 Kbps
Channel(s)                       : 6 channels
Channel positions                : Front: L C R, Rear: L R, LFE
Sampling rate                    : 48.0 KHz
Resolution                       : 16 bits
Stream size                      : 330 MiB (14%)
Language                         : English


Screenshots:

[img]http://img820.imageshack.us/img820/7950/snapl1.png[/img]

[img]http://img135.imageshack.us/img135/6104/snapl2.png[/img]

[img]http://img263.imageshack.us/img263/7022/snapl3.png[/img]

[img]http://img69.imageshack.us/img69/254/snapl4.png[/img]
